<?xml version="1.0" standalone="no"?>
<!DOCTYPE svg PUBLIC "-//W3C//DTD SVG 20010904//EN"
 "http://www.w3.org/TR/2001/REC-SVG-20010904/DTD/svg10.dtd">
<svg version="1.0" xmlns="http://www.w3.org/2000/svg"
 width="392.000000pt" height="392.000000pt" viewBox="0 0 392.000000 392.000000"
 preserveAspectRatio="xMidYMid meet">
<metadata>
Created by potrace 1.11, written by Peter Selinger 2001-2013
</metadata>
<g transform="translate(0.000000,392.000000) scale(0.100000,-0.100000)"
fill="#000000" stroke="none">
<path d="M1890 3913 c-133 -15 -278 -53 -365 -98 -28 -14 -53 -25 -57 -25 -12
0 -118 -69 -178 -116 -269 -209 -428 -505 -432 -806 -5 -329 181 -625 499
-794 80 -42 87 -53 73 -107 -5 -17 -11 -52 -14 -77 -8 -57 -15 -98 -22 -130
-3 -14 -8 -41 -10 -60 -2 -19 -6 -46 -9 -58 -3 -13 -8 -43 -11 -65 -3 -23 -7
-53 -10 -67 -8 -36 -24 -128 -30 -175 -3 -22 -9 -60 -14 -85 -8 -40 -20 -109
-25 -150 -8 -52 -36 -218 -41 -232 -3 -10 -11 -18 -18 -18 -33 0 -211 -65
-302 -111 -288 -143 -323 -331 -89 -487 133 -89 344 -162 584 -202 112 -18
135 -21 286 -36 90 -8 420 -9 510 0 173 17 221 22 255 30 14 3 43 8 65 11 129
18 332 82 461 145 323 159 323 382 0 539 -99 48 -177 78 -263 101 -25 6 -44
17 -44 25 -1 8 -2 18 -3 23 -4 16 -16 90 -21 137 -7 54 -11 85 -25 185 -14
100 -28 209 -36 270 -7 55 -8 63 -18 130 -2 19 -12 91 -21 160 -9 69 -18 135
-20 146 -2 12 -6 48 -10 80 -4 33 -9 67 -11 76 -4 12 12 27 53 54 299 190 477
500 467 814 -3 96 -7 126 -24 190 -75 288 -284 536 -570 673 -74 35 -190 79
-190 72 0 -2 -17 2 -39 9 -59 22 -248 38 -331 29z"/>
</g>
</svg>
